<?xml version="1.0" encoding="utf-8"?>
<!-- Generator: Adobe Illustrator 20.0.0, SVG Export Plug-In . SVG Version: 6.00 Build 0)  -->
<svg version="1.1" id="Layer_1" xmlns="http://www.w3.org/2000/svg" xmlns:xlink="http://www.w3.org/1999/xlink" x="0px" y="0px"
	 viewBox="0 0 75 75" style="enable-background:new 0 0 75 75;" xml:space="preserve">
<style type="text/css">
	.st0{fill:#FFFFFF;}
</style>
<path class="st0" d="M30.5,74.8c0.5-0.2,11.6-4.9,17-18.1c1.7-4.1,1.8-7.9,0.2-11.1c-0.6-1.2-1.3-2.2-2.2-3.1L72.7,5.3
	c1.1-1.5,0.7-3.5-0.7-4.6c-1.5-1.1-3.5-0.7-4.6,0.7L40.2,38.7c-1-0.5-2-0.8-2.8-1c-1.3-0.4-2.6-0.6-3.9-0.6c-4.6,0-9.3,2.4-13.3,7.3
	c0,0.1-4.6,6-11.9,6c-0.7,0-1.4-0.1-2.1-0.2c-1.1-0.2-2.2,0.2-3,1.1c-0.7,0.8-1,2-0.7,3.1c0.1,0.2,1.4,4.7,5.3,9.5
	c3.6,4.4,10.2,10,21,11.1C29.7,75.1,30.5,74.8,30.5,74.8z M33.5,43.6c0.7,0,1.3,0.1,2,0.3c1.5,0.5,5.1,1.8,6.4,4.4
	c0.7,1.6,0.6,3.5-0.4,5.8c-0.3,0.8-0.7,1.5-1,2.2c-2.7-1.2-8.8-4.2-14.8-8.3C28.4,45.1,31,43.6,33.5,43.6z M28.7,68.4
	C18.6,66.9,13.3,61,10.8,56.9c4.2-0.5,7.6-2.3,10-4.1c6.1,4.4,12.4,7.6,15.8,9.2C33.5,65.6,30.2,67.6,28.7,68.4z"/>
</svg>
