<?xml version="1.0" encoding="utf-8"?>
<!-- Generator: Adobe Illustrator 20.0.0, SVG Export Plug-In . SVG Version: 6.00 Build 0)  -->
<svg version="1.1" id="Layer_1" xmlns="http://www.w3.org/2000/svg" xmlns:xlink="http://www.w3.org/1999/xlink" x="0px" y="0px"
	 viewBox="0 0 95 75" style="enable-background:new 0 0 95 75;" xml:space="preserve">
<style type="text/css">
	.st0{fill:#FFFFFF;}
	.st1{fill:#FF9E16;}
</style>
<path class="st0" d="M40.5,74.8c0.5-0.2,11.6-4.9,17-18.1c1.7-4.1,1.8-7.9,0.2-11.1c-0.6-1.2-1.3-2.2-2.2-3.1L82.7,5.3
	c1.1-1.5,0.7-3.5-0.7-4.6c-1.5-1.1-3.5-0.7-4.6,0.7L50.2,38.7c-1-0.5-2-0.8-2.8-1c-1.3-0.4-2.6-0.6-3.9-0.6c-4.6,0-9.3,2.4-13.3,7.3
	c0,0.1-4.6,6-11.9,6c-0.7,0-1.4-0.1-2.1-0.2c-1.1-0.2-2.2,0.2-3,1.1c-0.7,0.8-1,2-0.7,3.1c0.1,0.2,1.4,4.7,5.3,9.5
	c3.6,4.4,10.2,10,21,11.1C39.7,75.1,40.5,74.8,40.5,74.8z M43.5,43.6c0.7,0,1.3,0.1,2,0.3c1.5,0.5,5.1,1.8,6.4,4.4
	c0.7,1.6,0.6,3.5-0.4,5.8c-0.3,0.8-0.7,1.5-1,2.2c-2.7-1.2-8.8-4.2-14.8-8.3C38.4,45.1,41,43.6,43.5,43.6z M38.7,68.4
	C28.6,66.9,23.3,61,20.8,56.9c4.2-0.5,7.6-2.3,10-4.1c6.1,4.4,12.4,7.6,15.8,9.2C43.5,65.6,40.2,67.6,38.7,68.4z"/>
<g>
	<path class="st1" d="M92.6,43c0,2.8-2.2,5-5,5H7.5c-2.8,0-5-2.2-5-5V29.5c0-2.8,2.2-5,5-5h80.1c2.8,0,5,2.2,5,5V43z"/>
</g>
<g>
	<g>
		<path class="st0" d="M26.2,40.7c0.1,0,0.3,0,0.4,0.1c0.1,0.1,0.2,0.1,0.3,0.2c0.1,0.1,0.2,0.2,0.2,0.3c0.1,0.1,0.1,0.3,0.1,0.4
			c0,0.3-0.1,0.5-0.3,0.8c-1.5,1.2-3.2,1.8-5.1,1.8c-2.2,0-4.1-0.8-5.7-2.4c-1.6-1.6-2.4-3.5-2.4-5.7c0-2.2,0.8-4.1,2.4-5.7
			c1.6-1.6,3.5-2.4,5.7-2.4c1.9,0,3.6,0.6,5.2,1.9c0.2,0.2,0.3,0.4,0.3,0.7c0,0.2,0,0.3-0.1,0.4c-0.1,0.1-0.1,0.2-0.2,0.3
			s-0.2,0.2-0.3,0.2c-0.1,0.1-0.3,0.1-0.4,0.1c-0.3,0-0.5-0.1-0.7-0.3c-0.5-0.4-1.1-0.7-1.7-0.9s-1.3-0.3-2-0.3
			c-1.6,0-3,0.6-4.2,1.7c-1.2,1.2-1.7,2.6-1.7,4.2c0,1.7,0.6,3.1,1.7,4.2c1.2,1.2,2.6,1.7,4.2,1.7c1.4,0,2.6-0.4,3.7-1.3
			C25.8,40.7,26,40.7,26.2,40.7z"/>
		<path class="st0" d="M28.7,29.2c0-0.3,0.1-0.5,0.3-0.8c0.2-0.2,0.5-0.3,0.8-0.3s0.5,0.1,0.8,0.3c0.2,0.2,0.3,0.5,0.3,0.8v13h7.5
			c0.3,0,0.5,0.1,0.8,0.3s0.3,0.5,0.3,0.8s-0.1,0.5-0.3,0.8c-0.2,0.2-0.5,0.3-0.8,0.3h-8.6c-0.2,0-0.3,0-0.4-0.1
			c-0.1-0.1-0.2-0.1-0.3-0.2s-0.2-0.2-0.2-0.3c-0.1-0.1-0.1-0.3-0.1-0.4V29.2z"/>
		<path class="st0" d="M51.3,42.2c0.3,0,0.5,0.1,0.8,0.3s0.3,0.5,0.3,0.8S52.2,43.8,52,44c-0.2,0.2-0.5,0.3-0.8,0.3h-9.4
			c-0.2,0-0.3,0-0.4-0.1c-0.1-0.1-0.2-0.1-0.3-0.2s-0.2-0.2-0.2-0.3c-0.1-0.1-0.1-0.3-0.1-0.4v-14c0-0.1,0-0.3,0.1-0.4
			c0.1-0.1,0.1-0.2,0.2-0.3s0.2-0.2,0.3-0.2c0.1-0.1,0.3-0.1,0.4-0.1h9.4c0.3,0,0.5,0.1,0.8,0.3c0.2,0.2,0.3,0.5,0.3,0.8
			S52.2,29.8,52,30s-0.5,0.3-0.8,0.3H43v4.9h5.9c0.3,0,0.5,0.1,0.8,0.3s0.3,0.5,0.3,0.8c0,0.3-0.1,0.5-0.3,0.8
			c-0.2,0.2-0.5,0.3-0.8,0.3H43v4.9H51.3z"/>
		<path class="st0" d="M53.9,42.7l5.4-13.9c0.2-0.5,0.6-0.7,1-0.7c0.5,0,0.8,0.2,1,0.7l5.4,13.9c0.1,0.1,0.1,0.3,0.1,0.4
			c0,0.3-0.1,0.5-0.3,0.8c-0.2,0.2-0.5,0.3-0.8,0.3c-0.3,0-0.5-0.1-0.7-0.3c-0.1-0.1-0.2-0.2-0.2-0.3l-1.9-4.8h-5.2l-1.9,4.8
			c-0.1,0.1-0.1,0.2-0.2,0.3c-0.2,0.2-0.5,0.3-0.8,0.3s-0.5-0.1-0.8-0.3c-0.2-0.2-0.3-0.5-0.3-0.8C53.8,43.1,53.8,42.9,53.9,42.7z
			 M62.1,36.7l-1.8-4.5l-1.8,4.5H62.1z"/>
		<path class="st0" d="M68.4,43.2v-14c0-0.1,0-0.3,0.1-0.4c0.1-0.1,0.1-0.2,0.2-0.3c0.1-0.1,0.2-0.2,0.3-0.2
			c0.1-0.1,0.3-0.1,0.4-0.1c0.3,0,0.6,0.1,0.8,0.4l9,11.6V29.2c0-0.3,0.1-0.5,0.3-0.8c0.2-0.2,0.5-0.3,0.8-0.3
			c0.3,0,0.5,0.1,0.8,0.3c0.2,0.2,0.3,0.5,0.3,0.8v14c0,0.2,0,0.3-0.1,0.4s-0.1,0.2-0.2,0.3s-0.2,0.2-0.3,0.2
			c-0.1,0.1-0.3,0.1-0.4,0.1c-0.3,0-0.6-0.1-0.8-0.4l-9-11.6v10.9c0,0.3-0.1,0.5-0.3,0.8c-0.2,0.2-0.5,0.3-0.8,0.3s-0.5-0.1-0.8-0.3
			C68.5,43.8,68.4,43.5,68.4,43.2z"/>
	</g>
</g>
</svg>
