<?xml version="1.0" encoding="utf-8"?>
<!-- Generator: Adobe Illustrator 20.0.0, SVG Export Plug-In . SVG Version: 6.00 Build 0)  -->
<svg version="1.1" id="Layer_1" xmlns="http://www.w3.org/2000/svg" xmlns:xlink="http://www.w3.org/1999/xlink" x="0px" y="0px"
	 viewBox="0 0 95 75" style="enable-background:new 0 0 95 75;" xml:space="preserve">
<style type="text/css">
	.st0{fill:#FFFFFF;}
	.st1{fill:#FF9E16;}
</style>
<g>
	<g>
		<path class="st0" d="M67.2,9.1c0-2-1.6-3.2-3.2-3.2h-0.8c-6.8,0-12.1,7.6-12.1,18.9v3.6c0,4,2,7.6,5.6,9.6c-1.2,4.8-1.6,10-1.6,10
			v16.1c0,3.2,2.8,6,6,6c3.2,0,6-2.8,6-6V48.1c0-1.6-0.4-5.6-1.2-9.2c0.8-0.8,1.2-1.6,1.2-2.8V9.1z"/>
		<path class="st0" d="M43.9,5.9h-0.8V20c0,1.2-0.8,2-2,2c-1.2,0-2-0.8-2-2V7.9c0-1.2-0.8-2-2-2c-1.2,0-2,0.8-2,2V20
			c0,1.2-0.8,2-2,2c-1.2,0-2-0.8-2-2V5.9h-0.8c-1.6,0-3.2,1.6-3.2,3.2V24c0,4,2.4,7.6,6,9.2c-1.6,6.4-2,14.9-2,14.9v16.1
			c0,3.2,2.8,6,6,6c3.2,0,6-2.8,6-6V48.1c0-2-0.4-9.2-1.6-14.9c3.2-1.6,5.6-5.2,5.6-9.2V9.1C47.1,7.5,45.5,5.9,43.9,5.9z"/>
	</g>
	<g>
		<path class="st1" d="M92.2,48.4c0,2.8-2.2,5-5,5H7c-2.8,0-5-2.2-5-5V34.9c0-2.8,2.2-5,5-5h80.1c2.8,0,5,2.3,5,5V48.4z"/>
	</g>
	<g>
		<path class="st0" d="M21.5,48.6v-14c0-0.1,0-0.3,0.1-0.4c0.1-0.1,0.1-0.2,0.2-0.3s0.2-0.2,0.3-0.2c0.1-0.1,0.3-0.1,0.4-0.1H32
			c0.3,0,0.5,0.1,0.8,0.3c0.2,0.2,0.3,0.5,0.3,0.8s-0.1,0.5-0.3,0.8c-0.2,0.2-0.5,0.3-0.8,0.3h-8.3v4.9h5.9c0.3,0,0.5,0.1,0.8,0.3
			s0.3,0.5,0.3,0.8s-0.1,0.5-0.3,0.8c-0.2,0.2-0.5,0.3-0.8,0.3h-5.9v5.9c0,0.3-0.1,0.6-0.3,0.8c-0.2,0.2-0.5,0.3-0.8,0.3
			c-0.3,0-0.5-0.1-0.8-0.3C21.7,49.2,21.5,48.9,21.5,48.6z"/>
		<path class="st0" d="M44.9,47.5c0.3,0,0.5,0.1,0.8,0.3c0.2,0.2,0.3,0.5,0.3,0.8c0,0.3-0.1,0.6-0.3,0.8c-0.2,0.2-0.5,0.3-0.8,0.3
			h-9.4c-0.2,0-0.3,0-0.4-0.1s-0.2-0.1-0.3-0.2s-0.2-0.2-0.2-0.3c-0.1-0.1-0.1-0.3-0.1-0.4v-14c0-0.1,0-0.3,0.1-0.4
			c0.1-0.1,0.1-0.2,0.2-0.3s0.2-0.2,0.3-0.2c0.1-0.1,0.3-0.1,0.4-0.1h9.4c0.3,0,0.5,0.1,0.8,0.3c0.2,0.2,0.3,0.5,0.3,0.8
			s-0.1,0.5-0.3,0.8c-0.2,0.2-0.5,0.3-0.8,0.3h-8.3v4.9h5.9c0.3,0,0.5,0.1,0.8,0.3s0.3,0.5,0.3,0.8s-0.1,0.5-0.3,0.8
			c-0.2,0.2-0.5,0.3-0.8,0.3h-5.9v4.9H44.9z"/>
		<path class="st0" d="M57.9,47.5c0.3,0,0.5,0.1,0.8,0.3c0.2,0.2,0.3,0.5,0.3,0.8c0,0.3-0.1,0.6-0.3,0.8c-0.2,0.2-0.5,0.3-0.8,0.3
			h-9.4c-0.2,0-0.3,0-0.4-0.1s-0.2-0.1-0.3-0.2s-0.2-0.2-0.2-0.3c-0.1-0.1-0.1-0.3-0.1-0.4v-14c0-0.1,0-0.3,0.1-0.4
			c0.1-0.1,0.1-0.2,0.2-0.3s0.2-0.2,0.3-0.2c0.1-0.1,0.3-0.1,0.4-0.1h9.4c0.3,0,0.5,0.1,0.8,0.3c0.2,0.2,0.3,0.5,0.3,0.8
			s-0.1,0.5-0.3,0.8c-0.2,0.2-0.5,0.3-0.8,0.3h-8.3v4.9h5.9c0.3,0,0.5,0.1,0.8,0.3s0.3,0.5,0.3,0.8s-0.1,0.5-0.3,0.8
			c-0.2,0.2-0.5,0.3-0.8,0.3h-5.9v4.9H57.9z"/>
		<path class="st0" d="M64.6,33.5c2.2,0,4.1,0.8,5.7,2.4c0.8,0.8,1.4,1.7,1.8,2.6c0.4,0.9,0.6,2,0.6,3.1c0,2.2-0.8,4.1-2.4,5.7
			c-1.6,1.6-3.5,2.4-5.7,2.4h-3.1c-0.1,0-0.3,0-0.4-0.1s-0.2-0.1-0.3-0.2s-0.2-0.2-0.2-0.3c-0.1-0.1-0.1-0.3-0.1-0.4v-14
			c0-0.1,0-0.3,0.1-0.4c0.1-0.1,0.1-0.2,0.2-0.3c0.1-0.1,0.2-0.2,0.3-0.2c0.1-0.1,0.3-0.1,0.4-0.1H64.6z M64.6,47.5
			c1.6,0,3-0.6,4.2-1.7c0.6-0.6,1-1.2,1.3-1.9c0.3-0.7,0.4-1.5,0.4-2.3c0-1.6-0.6-3-1.7-4.2c-1.2-1.2-2.6-1.7-4.2-1.7h-2v11.9H64.6z
			"/>
	</g>
</g>
</svg>
