<?xml version="1.0" encoding="utf-8"?>
<!-- Generator: Adobe Illustrator 20.0.0, SVG Export Plug-In . SVG Version: 6.00 Build 0)  -->
<svg version="1.1" id="Layer_1" xmlns="http://www.w3.org/2000/svg" xmlns:xlink="http://www.w3.org/1999/xlink" x="0px" y="0px"
	 viewBox="0 0 95 75" style="enable-background:new 0 0 95 75;" xml:space="preserve">
<style type="text/css">
	.st0{fill:#FFFFFF;}
</style>
<g>
	<g>
		<path class="st0" d="M67.2,9.1c0-2-1.6-3.2-3.2-3.2h-0.8c-6.8,0-12.1,7.6-12.1,18.9v3.6c0,4,2,7.6,5.6,9.6c-1.2,4.8-1.6,10-1.6,10
			v16.1c0,3.2,2.8,6,6,6c3.2,0,6-2.8,6-6v-16c0-1.6-0.4-5.6-1.2-9.2c0.8-0.8,1.2-1.6,1.2-2.8L67.2,9.1L67.2,9.1z"/>
		<path class="st0" d="M43.9,5.9h-0.8V20c0,1.2-0.8,2-2,2s-2-0.8-2-2V7.9c0-1.2-0.8-2-2-2s-2,0.8-2,2V20c0,1.2-0.8,2-2,2s-2-0.8-2-2
			V5.9h-0.8c-1.6,0-3.2,1.6-3.2,3.2V24c0,4,2.4,7.6,6,9.2c-1.6,6.4-2,14.9-2,14.9v16.1c0,3.2,2.8,6,6,6s6-2.8,6-6V48.1
			c0-2-0.4-9.2-1.6-14.9c3.2-1.6,5.6-5.2,5.6-9.2V9.1C47.1,7.5,45.5,5.9,43.9,5.9z"/>
	</g>
</g>
</svg>
