<?xml version="1.0" encoding="utf-8"?>
<!-- Generator: Adobe Illustrator 20.0.0, SVG Export Plug-In . SVG Version: 6.00 Build 0)  -->
<svg version="1.1" id="Layer_1" xmlns="http://www.w3.org/2000/svg" xmlns:xlink="http://www.w3.org/1999/xlink" x="0px" y="0px"
	 viewBox="0 0 95 75" style="enable-background:new 0 0 95 75;" xml:space="preserve">
<style type="text/css">
	.st0{fill:#FFFFFF;}
	.st1{fill:#FF9E16;}
</style>
<g>
	<g>
		<g>
			<path class="st0" d="M44.2,6.8c-6.9,0.6-13.7,3.6-19,8.9c-5.3,5.3-8.3,12.1-8.9,19c7.6,0.9,15.7,4.8,22.3,11.4
				c6.6,6.6,10.5,14.7,11.4,22.3c6.9-0.6,13.7-3.6,19-8.9c5.3-5.3,8.3-12.1,8.9-19c-7.6-0.9-15.7-4.8-22.3-11.4
				C49,22.4,45.1,14.4,44.2,6.8z"/>
			<path class="st0" d="M78,36.6c-0.2-7.6-3.2-15.1-9-20.9c-5.8-5.8-13.3-8.8-20.9-9c0.9,6.6,4.4,13.8,10.3,19.7S71.4,35.8,78,36.6z
				"/>
			<path class="st0" d="M16.2,38.5c0.2,7.6,3.2,15.1,9,20.9c5.8,5.8,13.3,8.8,20.9,9c-0.9-6.6-4.4-13.8-10.3-19.7
				C30,42.9,22.8,39.4,16.2,38.5z"/>
		</g>
	</g>
</g>
<g>
	<path class="st1" d="M92.2,46.2c0,2.8-2.2,5-5,5H7c-2.8,0-5-2.2-5-5V32.8c0-2.8,2.2-5,5-5h80.1c2.8,0,5,2.2,5,5V46.2z"/>
</g>
<g>
	<path class="st0" d="M30.1,45c0,0.3-0.1,0.5-0.3,0.8c-1.5,1.2-3.2,1.8-5.1,1.8c-2.2,0-4.1-0.8-5.7-2.4c-1.6-1.6-2.4-3.5-2.4-5.7
		c0-2.2,0.8-4.1,2.4-5.7c1.6-1.6,3.5-2.4,5.7-2.4c1.9,0,3.6,0.6,5.2,1.9c0.2,0.2,0.3,0.4,0.3,0.7c0,0.2,0,0.3-0.1,0.4
		c-0.1,0.1-0.1,0.2-0.2,0.3s-0.2,0.2-0.3,0.2C29.4,35,29.3,35,29.1,35c-0.3,0-0.5-0.1-0.7-0.3c-0.5-0.4-1.1-0.7-1.7-0.9
		s-1.3-0.3-2-0.3c-1.6,0-3,0.6-4.2,1.7c-1.2,1.2-1.7,2.6-1.7,4.2c0,1.7,0.6,3.1,1.7,4.2c1.2,1.2,2.6,1.7,4.2,1.7
		c1.2,0,2.3-0.3,3.3-1v-3.1h-2.8c-0.3,0-0.6-0.1-0.8-0.3c-0.2-0.2-0.3-0.5-0.3-0.8c0-0.1,0-0.3,0.1-0.4c0.1-0.1,0.1-0.2,0.2-0.3
		s0.2-0.2,0.3-0.2s0.3-0.1,0.4-0.1h3.9c0.1,0,0.3,0,0.4,0.1s0.2,0.1,0.3,0.2s0.2,0.2,0.2,0.3c0.1,0.1,0.1,0.3,0.1,0.4V45z"/>
	<path class="st0" d="M32.4,46l5.4-13.9c0.2-0.5,0.6-0.7,1-0.7c0.5,0,0.8,0.2,1,0.7L45.3,46c0.1,0.1,0.1,0.3,0.1,0.4
		c0,0.3-0.1,0.5-0.3,0.8c-0.2,0.2-0.5,0.3-0.8,0.3s-0.5-0.1-0.7-0.3c-0.1-0.1-0.2-0.2-0.2-0.3l-1.9-4.8h-5.2l-1.9,4.8
		c-0.1,0.1-0.1,0.2-0.2,0.3c-0.2,0.2-0.5,0.3-0.8,0.3c-0.3,0-0.5-0.1-0.8-0.3c-0.2-0.2-0.3-0.5-0.3-0.8C32.3,46.3,32.3,46.1,32.4,46
		z M40.6,39.9l-1.8-4.5l-1.8,4.5H40.6z"/>
	<path class="st0" d="M47.4,46.4v-14c0-0.1,0-0.3,0.1-0.4c0.1-0.1,0.1-0.2,0.2-0.3c0.1-0.1,0.2-0.2,0.3-0.2c0.1-0.1,0.3-0.1,0.4-0.1
		c0.4,0,0.7,0.2,1,0.6L55.5,44l6.1-12.1c0.2-0.4,0.6-0.6,1-0.6c0.1,0,0.3,0,0.4,0.1c0.1,0.1,0.2,0.1,0.3,0.2s0.2,0.2,0.2,0.3
		c0.1,0.1,0.1,0.3,0.1,0.4v14c0,0.3-0.1,0.5-0.3,0.8c-0.2,0.2-0.5,0.3-0.8,0.3s-0.5-0.1-0.8-0.3c-0.2-0.2-0.3-0.5-0.3-0.8V37l-5,10
		c-0.2,0.4-0.5,0.5-0.9,0.5c-0.4,0-0.8-0.2-1-0.6l-5-9.9v9.5c0,0.3-0.1,0.5-0.3,0.8c-0.2,0.2-0.5,0.3-0.8,0.3s-0.5-0.1-0.8-0.3
		C47.5,47,47.4,46.7,47.4,46.4z"/>
	<path class="st0" d="M76.1,45.4c0.3,0,0.5,0.1,0.8,0.3s0.3,0.5,0.3,0.8s-0.1,0.5-0.3,0.8c-0.2,0.2-0.5,0.3-0.8,0.3h-9.4
		c-0.2,0-0.3,0-0.4-0.1c-0.1-0.1-0.2-0.1-0.3-0.2s-0.2-0.2-0.2-0.3s-0.1-0.3-0.1-0.4v-14c0-0.1,0-0.3,0.1-0.4s0.1-0.2,0.2-0.3
		s0.2-0.2,0.3-0.2c0.1-0.1,0.3-0.1,0.4-0.1h9.4c0.3,0,0.5,0.1,0.8,0.3c0.2,0.2,0.3,0.5,0.3,0.8s-0.1,0.5-0.3,0.8s-0.5,0.3-0.8,0.3
		h-8.3v4.9h5.9c0.3,0,0.5,0.1,0.8,0.3s0.3,0.5,0.3,0.8c0,0.3-0.1,0.5-0.3,0.8c-0.2,0.2-0.5,0.3-0.8,0.3h-5.9v4.9H76.1z"/>
</g>
</svg>
