<?xml version="1.0" encoding="utf-8"?>
<!-- Generator: Adobe Illustrator 20.0.0, SVG Export Plug-In . SVG Version: 6.00 Build 0)  -->
<svg version="1.1" id="Layer_1" xmlns="http://www.w3.org/2000/svg" xmlns:xlink="http://www.w3.org/1999/xlink" x="0px" y="0px"
	 viewBox="0 0 75 75" style="enable-background:new 0 0 75 75;" xml:space="preserve">
<style type="text/css">
	.st0{fill:#FFFFFF;}
</style>
<g>
	<g>
		<g>
			<path class="st0" d="M34.2,6.8c-6.9,0.6-13.7,3.6-19,8.9C10,21,7,27.7,6.3,34.7c7.6,0.9,15.7,4.8,22.3,11.4
				c6.6,6.6,10.5,14.7,11.4,22.3c6.9-0.6,13.7-3.6,19-8.9c5.3-5.3,8.3-12.1,8.9-19c-7.6-0.9-15.7-4.8-22.3-11.4
				C39,22.4,35.1,14.4,34.2,6.8z"/>
			<path class="st0" d="M68,36.6c-0.2-7.6-3.2-15.1-9-20.9c-5.8-5.8-13.3-8.8-20.9-9c0.9,6.6,4.4,13.8,10.3,19.7S61.4,35.8,68,36.6z
				"/>
			<path class="st0" d="M6.2,38.5c0.2,7.6,3.2,15.1,9,20.9c5.8,5.8,13.3,8.8,20.9,9c-0.9-6.6-4.4-13.8-10.3-19.7
				C20,42.9,12.9,39.4,6.2,38.5z"/>
		</g>
	</g>
</g>
</svg>
