<?xml version="1.0" encoding="utf-8"?>
<!-- Generator: Adobe Illustrator 20.0.0, SVG Export Plug-In . SVG Version: 6.00 Build 0)  -->
<svg version="1.1" id="Layer_1" xmlns="http://www.w3.org/2000/svg" xmlns:xlink="http://www.w3.org/1999/xlink" x="0px" y="0px"
	 viewBox="0 0 95 75" style="enable-background:new 0 0 95 75;" xml:space="preserve">
<style type="text/css">
	.st0{fill:#FFFFFF;}
</style>
<g>
	<g>
		<g>
			<path class="st0" d="M44.2,6.8c-6.9,0.6-13.7,3.6-19,8.9s-8.3,12.1-8.9,19c7.6,0.9,15.7,4.8,22.3,11.4S49.1,60.8,50,68.4
				c6.9-0.6,13.7-3.6,19-8.9s8.3-12.1,8.9-19c-7.6-0.9-15.7-4.8-22.3-11.4C49,22.4,45.1,14.4,44.2,6.8z"/>
			<path class="st0" d="M78,36.6c-0.2-7.6-3.2-15.1-9-20.9s-13.3-8.8-20.9-9c0.9,6.6,4.4,13.8,10.3,19.7S71.4,35.8,78,36.6z"/>
			<path class="st0" d="M16.2,38.5c0.2,7.6,3.2,15.1,9,20.9s13.3,8.8,20.9,9c-0.9-6.6-4.4-13.8-10.3-19.7
				C30,42.9,22.8,39.4,16.2,38.5z"/>
		</g>
	</g>
</g>
</svg>
