<?xml version="1.0" encoding="utf-8"?>
<!-- Generator: Adobe Illustrator 20.0.0, SVG Export Plug-In . SVG Version: 6.00 Build 0)  -->
<svg version="1.1" id="Layer_1" xmlns="http://www.w3.org/2000/svg" xmlns:xlink="http://www.w3.org/1999/xlink" x="0px" y="0px"
	 viewBox="0 0 75 75" style="enable-background:new 0 0 75 75;" xml:space="preserve">
<style type="text/css">
	.st0{fill:#FFFFFF;}
</style>
<g>
	<path class="st0" d="M70.8,17.9H49.7V13c0-3.1-2.5-5.7-5.7-5.7H31.6C28.5,7.3,26,9.8,26,13v4.9H4.9c-1.9,0-3.5,1.5-3.5,3.5v44.3
		c0,1.9,1.5,3.5,3.5,3.5h65.9c1.9,0,3.5-1.5,3.5-3.5V21.3C74.2,19.4,72.7,17.9,70.8,17.9z M31.8,13.1h12.1v4.7H31.8
		C31.8,17.9,31.8,13.1,31.8,13.1z M37.8,64.4c-11.6,0-20.9-9.4-20.9-20.9s9.4-20.9,20.9-20.9s20.9,9.4,20.9,20.9
		S49.4,64.4,37.8,64.4z"/>
	<path class="st0" d="M48.4,38.5h-5.6v-5.6c0-1.5-1.2-2.8-2.8-2.8h-4.4c-1.5,0-2.8,1.2-2.8,2.8v5.6h-5.6c-1.5,0-2.8,1.2-2.8,2.8v4.4
		c0,1.5,1.2,2.8,2.8,2.8h5.6v5.6c0,1.5,1.2,2.8,2.8,2.8H40c1.5,0,2.8-1.2,2.8-2.8v-5.6h5.6c1.5,0,2.8-1.2,2.8-2.8v-4.4
		C51.2,39.8,49.9,38.5,48.4,38.5z"/>
</g>
</svg>
