<?xml version="1.0" encoding="utf-8"?>
<!-- Generator: Adobe Illustrator 20.0.0, SVG Export Plug-In . SVG Version: 6.00 Build 0)  -->
<svg version="1.1" id="Layer_1" xmlns="http://www.w3.org/2000/svg" xmlns:xlink="http://www.w3.org/1999/xlink" x="0px" y="0px"
	 viewBox="0 0 95 75" style="enable-background:new 0 0 95 75;" xml:space="preserve">
<style type="text/css">
	.st0{fill:#FFFFFF;}
	.st1{fill:#FF9E16;}
</style>
<g>
	<g>
		<path class="st0" d="M80.8,17.9H59.7V13c0-3.1-2.5-5.7-5.7-5.7H41.6C38.5,7.3,36,9.8,36,13v4.9H14.9c-1.9,0-3.5,1.5-3.5,3.5v44.3
			c0,1.9,1.5,3.5,3.5,3.5h65.9c1.9,0,3.5-1.5,3.5-3.5V21.3C84.2,19.4,82.7,17.9,80.8,17.9z M41.8,13.1h12.1v4.7H41.8
			C41.8,17.9,41.8,13.1,41.8,13.1z M47.8,64.4c-11.6,0-20.9-9.4-20.9-20.9s9.4-20.9,20.9-20.9S68.7,32,68.7,43.5
			S59.4,64.4,47.8,64.4z"/>
		<path class="st0" d="M58.4,38.5h-5.6v-5.6c0-1.5-1.2-2.8-2.8-2.8h-4.4c-1.5,0-2.8,1.2-2.8,2.8v5.6h-5.6c-1.5,0-2.8,1.2-2.8,2.8
			v4.4c0,1.5,1.2,2.8,2.8,2.8h5.6v5.6c0,1.5,1.2,2.8,2.8,2.8H50c1.5,0,2.8-1.2,2.8-2.8v-5.6h5.6c1.5,0,2.8-1.2,2.8-2.8v-4.4
			C61.2,39.8,59.9,38.5,58.4,38.5z"/>
	</g>
	<g>
		<path class="st1" d="M92.9,51.4c0,2.8-2.2,5-5,5H7.8c-2.8,0-5-2.2-5-5V37.9c0-2.8,2.2-5,5-5h80.1c2.8,0,5,2.2,5,5V51.4z"/>
	</g>
	<g>
		<path class="st0" d="M16.9,51.6v-14c0-0.1,0-0.3,0.1-0.4c0.1-0.1,0.1-0.2,0.2-0.3c0.1-0.1,0.2-0.2,0.3-0.2
			c0.1-0.1,0.3-0.1,0.4-0.1c0.3,0,0.6,0.1,0.8,0.4l9,11.6V37.6c0-0.3,0.1-0.5,0.3-0.8s0.5-0.3,0.8-0.3c0.3,0,0.5,0.1,0.8,0.3
			c0.2,0.2,0.3,0.5,0.3,0.8v14c0,0.2,0,0.3-0.1,0.4c-0.1,0.1-0.1,0.2-0.2,0.3s-0.2,0.2-0.3,0.2s-0.3,0.1-0.4,0.1
			c-0.3,0-0.6-0.1-0.8-0.4l-9-11.6v10.9c0,0.3-0.1,0.6-0.3,0.8c-0.2,0.2-0.5,0.3-0.8,0.3c-0.3,0-0.5-0.1-0.8-0.3
			C17,52.2,16.9,51.9,16.9,51.6z"/>
		<path class="st0" d="M33.6,37.6v9.4c0,0.5,0.1,1,0.3,1.4c0.2,0.4,0.4,0.8,0.8,1.1c0.3,0.3,0.7,0.6,1.1,0.8
			c0.4,0.2,0.9,0.3,1.4,0.3c0.5,0,1-0.1,1.4-0.3c0.4-0.2,0.8-0.4,1.1-0.8c0.3-0.3,0.6-0.7,0.8-1.1c0.2-0.4,0.3-0.9,0.3-1.4v-9.4
			c0-0.3,0.1-0.5,0.3-0.8s0.5-0.3,0.8-0.3c0.3,0,0.5,0.1,0.8,0.3s0.3,0.5,0.3,0.8v9.4c0,0.5-0.1,1-0.2,1.5c-0.1,0.5-0.3,0.9-0.6,1.4
			c-0.2,0.4-0.5,0.8-0.9,1.2s-0.7,0.7-1.2,0.9c-0.4,0.3-0.9,0.4-1.4,0.6c-0.5,0.1-1,0.2-1.5,0.2c-1.6,0-2.9-0.6-4.1-1.7
			c-1.1-1.1-1.7-2.5-1.7-4.1v-9.4c0-0.3,0.1-0.5,0.3-0.8s0.5-0.3,0.8-0.3c0.3,0,0.5,0.1,0.8,0.3C33.5,37,33.6,37.3,33.6,37.6z"/>
		<path class="st0" d="M44.4,51.6v-14c0-0.1,0-0.3,0.1-0.4c0.1-0.1,0.1-0.2,0.2-0.3s0.2-0.2,0.3-0.2c0.1-0.1,0.3-0.1,0.4-0.1h3.9
			c0.7,0,1.3,0.1,1.9,0.4c0.6,0.3,1.1,0.6,1.6,1.1c0.4,0.5,0.8,1,1.1,1.6c0.3,0.6,0.4,1.2,0.4,1.9c0,0.4-0.1,0.9-0.2,1.3
			s-0.3,0.8-0.5,1.2c-0.2,0.4-0.5,0.7-0.8,1s-0.7,0.6-1.1,0.8L55,51c0.1,0.2,0.2,0.4,0.2,0.6c0,0.2,0,0.3-0.1,0.4
			c-0.1,0.1-0.1,0.2-0.2,0.3s-0.2,0.2-0.3,0.2s-0.3,0.1-0.4,0.1c-0.4,0-0.7-0.2-0.9-0.5l-3.6-5.7h-3v5.2c0,0.3-0.1,0.6-0.3,0.8
			c-0.2,0.2-0.5,0.3-0.8,0.3c-0.3,0-0.5-0.1-0.8-0.3C44.5,52.2,44.4,51.9,44.4,51.6z M46.6,38.7v5.7h2.8c0.4,0,0.8-0.1,1.1-0.2
			s0.6-0.4,0.9-0.6c0.3-0.3,0.5-0.6,0.6-0.9c0.1-0.3,0.2-0.7,0.2-1.1c0-0.4-0.1-0.8-0.2-1.1s-0.4-0.6-0.6-0.9
			c-0.3-0.3-0.6-0.5-0.9-0.6s-0.7-0.2-1.1-0.2H46.6z"/>
		<path class="st0" d="M58.6,43.7c-0.5-0.5-0.8-0.9-1-1.4c-0.2-0.5-0.3-1-0.3-1.5c0-0.7,0.1-1.3,0.4-1.8c0.2-0.5,0.6-1,1.1-1.4h0
			c0.8-0.7,1.7-1,2.7-1c0.3,0,0.7,0,1,0.1c0.3,0.1,0.7,0.2,1,0.4c0.3,0.2,0.6,0.4,0.9,0.6c0.3,0.3,0.5,0.6,0.7,0.9
			c0.1,0.2,0.2,0.4,0.2,0.6c0,0.2,0,0.3-0.1,0.4c-0.1,0.1-0.1,0.2-0.2,0.3s-0.2,0.2-0.3,0.2c-0.1,0.1-0.3,0.1-0.4,0.1
			c-0.1,0-0.3,0-0.4-0.1c-0.1,0-0.2-0.1-0.3-0.2c-0.1-0.1-0.2-0.2-0.2-0.3s-0.2-0.2-0.2-0.3c-0.2-0.2-0.4-0.4-0.7-0.5
			c-0.3-0.1-0.6-0.2-0.9-0.2c-0.3,0-0.5,0.1-0.7,0.2c-0.2,0.1-0.5,0.2-0.6,0.4c-0.2,0.2-0.3,0.4-0.5,0.6c-0.1,0.2-0.2,0.5-0.2,0.8
			c0,0.5,0.1,0.9,0.4,1.2c0.3,0.3,0.8,0.6,1.5,0.8c1.2,0.3,2.1,0.8,2.8,1.4c0.7,0.6,1.1,1.2,1.4,1.7c0.2,0.6,0.4,1.2,0.4,1.8
			c0,1.6-0.6,2.9-1.7,3.8h0c-0.9,0.8-2,1.2-3.2,1.2c-0.4,0-0.8,0-1.2-0.1s-0.8-0.2-1.1-0.4c-0.4-0.2-0.7-0.4-1-0.7
			c-0.3-0.3-0.6-0.6-0.8-1c-0.1-0.2-0.2-0.4-0.2-0.6c0-0.1,0-0.3,0.1-0.4s0.1-0.2,0.2-0.3s0.2-0.2,0.3-0.2s0.3-0.1,0.4-0.1
			c0.4,0,0.7,0.2,0.9,0.5c0.3,0.4,0.6,0.8,1.1,1c0.4,0.2,0.9,0.3,1.4,0.3c0.4,0,0.7-0.1,1.1-0.2c0.3-0.2,0.6-0.4,0.9-0.6
			s0.5-0.6,0.6-0.9s0.2-0.7,0.2-1.1c0-0.4-0.1-0.7-0.2-1c-0.1-0.3-0.4-0.7-0.8-1c-0.4-0.3-1-0.6-1.9-0.9
			C59.9,44.5,59.1,44.2,58.6,43.7z"/>
		<path class="st0" d="M77.7,50.6c0.3,0,0.5,0.1,0.8,0.3s0.3,0.5,0.3,0.8c0,0.3-0.1,0.6-0.3,0.8c-0.2,0.2-0.5,0.3-0.8,0.3h-9.4
			c-0.2,0-0.3,0-0.4-0.1s-0.2-0.1-0.3-0.2s-0.2-0.2-0.2-0.3c-0.1-0.1-0.1-0.3-0.1-0.4v-14c0-0.1,0-0.3,0.1-0.4
			c0.1-0.1,0.1-0.2,0.2-0.3s0.2-0.2,0.3-0.2c0.1-0.1,0.3-0.1,0.4-0.1h9.4c0.3,0,0.5,0.1,0.8,0.3s0.3,0.5,0.3,0.8s-0.1,0.5-0.3,0.8
			s-0.5,0.3-0.8,0.3h-8.3v4.9h5.9c0.3,0,0.5,0.1,0.8,0.3s0.3,0.5,0.3,0.8s-0.1,0.5-0.3,0.8c-0.2,0.2-0.5,0.3-0.8,0.3h-5.9v4.9H77.7z
			"/>
	</g>
</g>
</svg>
