<?xml version="1.0" encoding="utf-8"?>
<!-- Generator: Adobe Illustrator 20.0.0, SVG Export Plug-In . SVG Version: 6.00 Build 0)  -->
<svg version="1.1" id="Layer_1" xmlns="http://www.w3.org/2000/svg" xmlns:xlink="http://www.w3.org/1999/xlink" x="0px" y="0px"
	 viewBox="0 0 95 75" style="enable-background:new 0 0 95 75;" xml:space="preserve">
<style type="text/css">
	.st0{fill:#FFFFFF;}
</style>
<g>
	<g>
		<path class="st0" d="M80.8,17.9H59.7V13c0-3.1-2.5-5.7-5.7-5.7H41.6C38.5,7.3,36,9.8,36,13v4.9H14.9c-1.9,0-3.5,1.5-3.5,3.5v44.3
			c0,1.9,1.5,3.5,3.5,3.5h65.9c1.9,0,3.5-1.5,3.5-3.5V21.3C84.2,19.4,82.7,17.9,80.8,17.9z M41.8,13.1h12.1v4.7H41.8
			C41.8,17.9,41.8,13.1,41.8,13.1z M47.8,64.4c-11.6,0-20.9-9.4-20.9-20.9s9.4-20.9,20.9-20.9S68.7,32,68.7,43.5
			S59.4,64.4,47.8,64.4z"/>
		<path class="st0" d="M58.4,38.5h-5.6v-5.6c0-1.5-1.2-2.8-2.8-2.8h-4.4c-1.5,0-2.8,1.2-2.8,2.8v5.6h-5.6c-1.5,0-2.8,1.2-2.8,2.8
			v4.4c0,1.5,1.2,2.8,2.8,2.8h5.6v5.6c0,1.5,1.2,2.8,2.8,2.8H50c1.5,0,2.8-1.2,2.8-2.8v-5.6h5.6c1.5,0,2.8-1.2,2.8-2.8v-4.4
			C61.2,39.8,59.9,38.5,58.4,38.5z"/>
	</g>
</g>
</svg>
