<?xml version="1.0" encoding="utf-8"?>
<!-- Generator: Adobe Illustrator 20.0.0, SVG Export Plug-In . SVG Version: 6.00 Build 0)  -->
<svg version="1.1" id="Layer_1" xmlns="http://www.w3.org/2000/svg" xmlns:xlink="http://www.w3.org/1999/xlink" x="0px" y="0px"
	 viewBox="0 0 95 75" style="enable-background:new 0 0 95 75;" xml:space="preserve">
<style type="text/css">
	.st0{fill:#FFFFFF;}
	.st1{fill:#FF9E16;}
</style>
<g>
	<path class="st0" d="M46,37H20.8c-1,0-1.9-0.6-2.2-1.5c-0.4-0.9-0.2-1.9,0.5-2.6l20.9-20.6H20.8c-1.3,0-2.4-1.1-2.4-2.4
		c0-1.3,1.1-2.4,2.4-2.4H46c1,0,1.9,0.6,2.2,1.5c0.4,0.9,0.2,1.9-0.5,2.6L26.7,32.2H46c1.3,0,2.4,1.1,2.4,2.4C48.4,36,47.3,37,46,37
		z M74.2,42H62.3l13.6-13.3c0.7-0.7,0.9-1.7,0.5-2.6c-0.4-0.9-1.3-1.5-2.3-1.5H56.4c-1.3,0-2.4,1.1-2.4,2.4c0,1.3,1.1,2.4,2.4,2.4
		h11.9L54.7,42.7c-0.7,0.7-0.9,1.7-0.5,2.6c0.4,0.9,1.3,1.5,2.2,1.5h17.8c1.3,0,2.4-1.1,2.4-2.4C76.6,43.1,75.5,42,74.2,42z
		 M46.8,62.6h-8.3l10-9.8c0.7-0.7,0.9-1.7,0.5-2.6c-0.4-0.9-1.3-1.5-2.2-1.5H32.6c-1.3,0-2.4,1.1-2.4,2.4c0,1.3,1.1,2.4,2.4,2.4h8.3
		l-10,9.8C30.2,64,30,65,30.4,66c0.4,0.9,1.3,1.5,2.2,1.5h14.2c1.3,0,2.4-1.1,2.4-2.4S48.2,62.6,46.8,62.6z"/>
</g>
<g>
	<path class="st1" d="M92.6,44.8c0,2.8-2.2,5-5,5H7.4c-2.8,0-5-2.2-5-5V31.3c0-2.8,2.2-5,5-5h80.1c2.8,0,5,2.2,5,5V44.8z"/>
</g>
<g>
	<path class="st0" d="M20.5,37.2c-0.5-0.5-0.8-0.9-1-1.4c-0.2-0.5-0.3-1-0.3-1.5c0-0.7,0.1-1.3,0.4-1.8c0.2-0.5,0.6-1,1.1-1.4h0
		c0.8-0.7,1.7-1,2.7-1c0.3,0,0.7,0,1,0.1c0.3,0.1,0.7,0.2,1,0.4s0.6,0.4,0.9,0.6c0.3,0.3,0.5,0.6,0.7,0.9c0.1,0.2,0.2,0.4,0.2,0.6
		c0,0.2,0,0.3-0.1,0.4c-0.1,0.1-0.1,0.2-0.2,0.3s-0.2,0.2-0.3,0.2c-0.1,0.1-0.3,0.1-0.4,0.1c-0.1,0-0.3,0-0.4-0.1
		c-0.1,0-0.2-0.1-0.3-0.2c-0.1-0.1-0.2-0.2-0.2-0.3c-0.1-0.1-0.2-0.2-0.2-0.3c-0.2-0.2-0.4-0.4-0.7-0.5c-0.3-0.1-0.6-0.2-0.9-0.2
		c-0.3,0-0.5,0.1-0.7,0.2s-0.5,0.2-0.6,0.4c-0.2,0.2-0.3,0.4-0.5,0.6c-0.1,0.2-0.2,0.5-0.2,0.8c0,0.5,0.1,0.9,0.4,1.2
		c0.3,0.3,0.8,0.6,1.5,0.8c1.2,0.3,2.1,0.8,2.8,1.4s1.1,1.2,1.4,1.7c0.2,0.6,0.4,1.2,0.4,1.8c0,1.6-0.6,2.9-1.7,3.8h0
		c-0.9,0.8-2,1.2-3.2,1.2c-0.4,0-0.8,0-1.2-0.1s-0.8-0.2-1.1-0.4c-0.4-0.2-0.7-0.4-1-0.7c-0.3-0.3-0.6-0.6-0.8-1
		c-0.1-0.2-0.2-0.4-0.2-0.6c0-0.1,0-0.3,0.1-0.4c0.1-0.1,0.1-0.2,0.2-0.3s0.2-0.2,0.3-0.2s0.3-0.1,0.4-0.1c0.4,0,0.7,0.2,0.9,0.5
		c0.3,0.4,0.6,0.8,1.1,1c0.4,0.2,0.9,0.3,1.4,0.3c0.4,0,0.7-0.1,1.1-0.2c0.3-0.2,0.6-0.4,0.9-0.6c0.3-0.3,0.5-0.6,0.6-0.9
		c0.1-0.3,0.2-0.7,0.2-1.1c0-0.4-0.1-0.7-0.2-1c-0.1-0.3-0.4-0.7-0.8-1c-0.4-0.3-1-0.6-1.9-0.9C21.7,38.1,21,37.7,20.5,37.2z"/>
	<path class="st0" d="M29.1,31.1c0-0.3,0.1-0.5,0.3-0.8c0.2-0.2,0.5-0.3,0.8-0.3s0.5,0.1,0.8,0.3c0.2,0.2,0.3,0.5,0.3,0.8v13h7.5
		c0.3,0,0.5,0.1,0.8,0.3s0.3,0.5,0.3,0.8c0,0.3-0.1,0.5-0.3,0.8s-0.5,0.3-0.8,0.3h-8.6c-0.2,0-0.3,0-0.4-0.1
		c-0.1-0.1-0.2-0.1-0.3-0.2s-0.2-0.2-0.2-0.3c-0.1-0.1-0.1-0.3-0.1-0.4V31.1z"/>
	<path class="st0" d="M51.6,44.1c0.3,0,0.5,0.1,0.8,0.3c0.2,0.2,0.3,0.5,0.3,0.8c0,0.3-0.1,0.5-0.3,0.8c-0.2,0.2-0.5,0.3-0.8,0.3
		h-9.4c-0.2,0-0.3,0-0.4-0.1s-0.2-0.1-0.3-0.2s-0.2-0.2-0.2-0.3c-0.1-0.1-0.1-0.3-0.1-0.4v-14c0-0.1,0-0.3,0.1-0.4
		c0.1-0.1,0.1-0.2,0.2-0.3s0.2-0.2,0.3-0.2c0.1-0.1,0.3-0.1,0.4-0.1h9.4c0.3,0,0.5,0.1,0.8,0.3c0.2,0.2,0.3,0.5,0.3,0.8
		s-0.1,0.5-0.3,0.8c-0.2,0.2-0.5,0.3-0.8,0.3h-8.3v4.9h5.9c0.3,0,0.5,0.1,0.8,0.3s0.3,0.5,0.3,0.8c0,0.3-0.1,0.5-0.3,0.8
		s-0.5,0.3-0.8,0.3h-5.9v4.9H51.6z"/>
	<path class="st0" d="M64.6,44.1c0.3,0,0.5,0.1,0.8,0.3c0.2,0.2,0.3,0.5,0.3,0.8c0,0.3-0.1,0.5-0.3,0.8c-0.2,0.2-0.5,0.3-0.8,0.3
		h-9.4c-0.2,0-0.3,0-0.4-0.1s-0.2-0.1-0.3-0.2s-0.2-0.2-0.2-0.3c-0.1-0.1-0.1-0.3-0.1-0.4v-14c0-0.1,0-0.3,0.1-0.4
		c0.1-0.1,0.1-0.2,0.2-0.3s0.2-0.2,0.3-0.2c0.1-0.1,0.3-0.1,0.4-0.1h9.4c0.3,0,0.5,0.1,0.8,0.3c0.2,0.2,0.3,0.5,0.3,0.8
		s-0.1,0.5-0.3,0.8c-0.2,0.2-0.5,0.3-0.8,0.3h-8.3v4.9h5.9c0.3,0,0.5,0.1,0.8,0.3s0.3,0.5,0.3,0.8c0,0.3-0.1,0.5-0.3,0.8
		s-0.5,0.3-0.8,0.3h-5.9v4.9H64.6z"/>
	<path class="st0" d="M67.1,45.2v-14c0-0.1,0-0.3,0.1-0.4c0.1-0.1,0.1-0.2,0.2-0.3s0.2-0.2,0.3-0.2c0.1-0.1,0.3-0.1,0.4-0.1h3.1
		c0.5,0,1,0.1,1.4,0.2s0.9,0.3,1.3,0.5c0.4,0.2,0.8,0.5,1.1,0.8c0.3,0.3,0.6,0.7,0.8,1.1c0.2,0.4,0.4,0.8,0.5,1.3
		c0.1,0.5,0.2,0.9,0.2,1.4c0,1.5-0.5,2.7-1.6,3.8c-1,1-2.3,1.6-3.8,1.6h-2v4.4c0,0.3-0.1,0.5-0.3,0.8s-0.5,0.3-0.8,0.3
		c-0.3,0-0.5-0.1-0.8-0.3C67.2,45.7,67.1,45.5,67.1,45.2z M69.2,32.2v6.4h2c0.4,0,0.9-0.1,1.2-0.3c0.4-0.2,0.7-0.4,1-0.7
		s0.5-0.6,0.7-1c0.2-0.4,0.3-0.8,0.3-1.3c0-0.5-0.1-0.9-0.3-1.3c-0.2-0.4-0.4-0.7-0.7-1c-0.3-0.3-0.6-0.5-1-0.7
		c-0.4-0.2-0.8-0.2-1.2-0.2H69.2z"/>
</g>
</svg>
