<?xml version="1.0" encoding="utf-8"?>
<!-- Generator: Adobe Illustrator 20.0.0, SVG Export Plug-In . SVG Version: 6.00 Build 0)  -->
<svg version="1.1" id="Layer_1" xmlns="http://www.w3.org/2000/svg" xmlns:xlink="http://www.w3.org/1999/xlink" x="0px" y="0px"
	 viewBox="0 0 95 75" style="enable-background:new 0 0 95 75;" xml:space="preserve">
<style type="text/css">
	.st0{fill:#FFFFFF;}
</style>
<g>
	<path class="st0" d="M46,37H20.8c-1,0-1.9-0.6-2.2-1.5c-0.4-0.9-0.2-1.9,0.5-2.6L40,12.3H20.8c-1.3,0-2.4-1.1-2.4-2.4
		s1.1-2.4,2.4-2.4H46c1,0,1.9,0.6,2.2,1.5c0.4,0.9,0.2,1.9-0.5,2.6l-21,20.6H46c1.3,0,2.4,1.1,2.4,2.4C48.4,36,47.3,37,46,37z
		 M74.2,42H62.3l13.6-13.3c0.7-0.7,0.9-1.7,0.5-2.6s-1.3-1.5-2.3-1.5H56.4c-1.3,0-2.4,1.1-2.4,2.4s1.1,2.4,2.4,2.4h11.9L54.7,42.7
		c-0.7,0.7-0.9,1.7-0.5,2.6c0.4,0.9,1.3,1.5,2.2,1.5h17.8c1.3,0,2.4-1.1,2.4-2.4C76.6,43.1,75.5,42,74.2,42z M46.8,62.6h-8.3l10-9.8
		c0.7-0.7,0.9-1.7,0.5-2.6c-0.4-0.9-1.3-1.5-2.2-1.5H32.6c-1.3,0-2.4,1.1-2.4,2.4c0,1.3,1.1,2.4,2.4,2.4h8.3l-10,9.8
		C30.2,64,30,65,30.4,66c0.4,0.9,1.3,1.5,2.2,1.5h14.2c1.3,0,2.4-1.1,2.4-2.4S48.2,62.6,46.8,62.6z"/>
</g>
</svg>
