<?xml version="1.0" encoding="utf-8"?>
<!-- Generator: Adobe Illustrator 20.0.0, SVG Export Plug-In . SVG Version: 6.00 Build 0)  -->
<svg version="1.1" id="Layer_1" xmlns="http://www.w3.org/2000/svg" xmlns:xlink="http://www.w3.org/1999/xlink" x="0px" y="0px"
	 viewBox="0 0 75 75" style="enable-background:new 0 0 75 75;" xml:space="preserve">
<style type="text/css">
	.st0{fill:#FFFFFF;}
</style>
<g>
	<path class="st0" d="M36.3,37H11.2c-1,0-1.9-0.6-2.2-1.5c-0.4-0.9-0.2-1.9,0.5-2.6l20.9-20.6H11.2c-1.3,0-2.4-1.1-2.4-2.4
		c0-1.3,1.1-2.4,2.4-2.4h25.2c1,0,1.9,0.6,2.2,1.5c0.4,0.9,0.2,1.9-0.5,2.6L17.1,32.2h19.2c1.3,0,2.4,1.1,2.4,2.4
		C38.7,35.9,37.7,37,36.3,37z M64.5,42H52.7l13.6-13.3c0.7-0.7,0.9-1.7,0.5-2.6c-0.4-0.9-1.3-1.5-2.3-1.5H46.7
		c-1.3,0-2.4,1.1-2.4,2.4c0,1.3,1.1,2.4,2.4,2.4h11.9L45,42.7c-0.7,0.7-0.9,1.7-0.5,2.6c0.4,0.9,1.3,1.5,2.2,1.5h17.8
		c1.3,0,2.4-1.1,2.4-2.4C66.9,43.1,65.9,42,64.5,42z M37.2,62.6h-8.3l10-9.8c0.7-0.7,0.9-1.7,0.5-2.6c-0.4-0.9-1.3-1.5-2.2-1.5H23
		c-1.3,0-2.4,1.1-2.4,2.4c0,1.3,1.1,2.4,2.4,2.4h8.3l-10,9.8c-0.7,0.7-0.9,1.7-0.5,2.6c0.4,0.9,1.3,1.5,2.2,1.5h14.2
		c1.3,0,2.4-1.1,2.4-2.4C39.6,63.7,38.5,62.6,37.2,62.6z"/>
</g>
</svg>
