<?xml version="1.0" encoding="utf-8"?>
<!-- Generator: Adobe Illustrator 20.0.0, SVG Export Plug-In . SVG Version: 6.00 Build 0)  -->
<svg version="1.1" id="Layer_1" xmlns="http://www.w3.org/2000/svg" xmlns:xlink="http://www.w3.org/1999/xlink" x="0px" y="0px"
	 viewBox="0 0 95 75" style="enable-background:new 0 0 95 75;" xml:space="preserve">
<style type="text/css">
	.st0{fill:#FFFFFF;}
</style>
<g>
	<g>
		<path class="st0" d="M69.1,11.8c0-2.2,0-3.6,0-3.6H47.3l0,0h-0.1H47l0,0H25.1c0,0-0.1,1.4,0,3.6H10.7v2.4c0,0.5,0.1,13.4,8,20.4
			C22,37.5,26.1,39,31,39c0.7,0,1.5,0,2.3-0.1c2.8,3.8,6,6.4,9.5,7.8v10.5H32.3v6.6h-3.5v3.7H47h0.2h18.3v-3.7H62v-6.6H51.5V46.6
			c3.6-1.3,6.8-4,9.5-7.8c0.8,0.1,1.5,0.1,2.3,0.1c4.9,0,9-1.5,12.3-4.4c7.9-7,8-19.9,8-20.4v-2.4H69.1V11.8z M21.9,31
			c-4.5-4-5.9-10.9-6.3-14.5h9.8c0.4,4.5,1.4,10.1,3.6,15.1c0.4,0.9,0.8,1.8,1.3,2.6C27,34.1,24.1,33,21.9,31z M72.4,31
			c-2.2,2-5.1,3-8.5,3.2c0.4-0.8,0.9-1.7,1.3-2.6c2.3-4.9,3.2-10.6,3.6-15.1h9.8C78.3,20.2,76.9,27,72.4,31z"/>
	</g>
</g>
</svg>
