<?xml version="1.0" encoding="utf-8"?>
<!-- Generator: Adobe Illustrator 20.0.0, SVG Export Plug-In . SVG Version: 6.00 Build 0)  -->
<svg version="1.1" id="Layer_1" xmlns="http://www.w3.org/2000/svg" xmlns:xlink="http://www.w3.org/1999/xlink" x="0px" y="0px"
	 viewBox="0 0 75 75" style="enable-background:new 0 0 75 75;" xml:space="preserve">
<style type="text/css">
	.st0{fill:#FFFFFF;}
</style>
<g>
	<path class="st0" d="M59.1,11.7c0-2.2,0-3.6,0-3.6l-21.8,0l0,0h-0.1H37l0,0l-21.9,0c0,0-0.1,1.4,0,3.6H0.7v2.4
		c0,0.5,0.1,13.4,8,20.4C12,37.5,16.1,39,21,39c0.7,0,1.5,0,2.3-0.1c2.8,3.8,6,6.4,9.5,7.8v10.5H22.2v6.6h-3.5v3.7H37h0.2h18.3v-3.7
		H52v-6.6H41.5V46.6c3.6-1.3,6.8-4,9.5-7.8c0.8,0.1,1.5,0.1,2.3,0.1c4.9,0,9-1.5,12.3-4.4c7.9-7,8-19.9,8-20.4v-2.4H59.1z M11.9,31
		C7.3,27,6,20.1,5.6,16.5h9.8c0.4,4.5,1.4,10.1,3.6,15.1c0.4,0.9,0.8,1.8,1.3,2.6C17,34,14.1,33,11.9,31z M62.4,31
		c-2.2,2-5.1,3-8.5,3.2c0.4-0.8,0.9-1.7,1.3-2.6c2.3-4.9,3.2-10.6,3.6-15.1h9.8C68.3,20.1,66.9,27,62.4,31z"/>
</g>
</svg>
