<?xml version="1.0" encoding="utf-8"?>
<!-- Generator: Adobe Illustrator 20.0.0, SVG Export Plug-In . SVG Version: 6.00 Build 0)  -->
<svg version="1.1" id="Layer_1" xmlns="http://www.w3.org/2000/svg" xmlns:xlink="http://www.w3.org/1999/xlink" x="0px" y="0px"
	 viewBox="0 0 95 75" style="enable-background:new 0 0 95 75;" xml:space="preserve">
<style type="text/css">
	.st0{fill:#FFFFFF;}
	.st1{fill:#FF9E16;}
</style>
<g>
	<g>
		<path class="st0" d="M69.1,11.8c0-2.2,0-3.6,0-3.6l-21.8,0l0,0h-0.1H47l0,0l-21.9,0c0,0-0.1,1.4,0,3.6H10.7v2.4
			c0,0.5,0.1,13.4,8,20.4C22,37.5,26.1,39,31,39c0.7,0,1.5,0,2.3-0.1c2.8,3.8,6,6.4,9.5,7.8v10.5H32.3v6.6h-3.5v3.7H47h0.2h18.3
			v-3.7H62v-6.6H51.5V46.6c3.6-1.3,6.8-4,9.5-7.8c0.8,0.1,1.5,0.1,2.3,0.1c4.9,0,9-1.5,12.3-4.4c7.9-7,8-19.9,8-20.4v-2.4H69.1z
			 M21.9,31c-4.5-4-5.9-10.9-6.3-14.5h9.8c0.4,4.5,1.4,10.1,3.6,15.1c0.4,0.9,0.8,1.8,1.3,2.6C27,34.1,24.1,33,21.9,31z M72.4,31
			c-2.2,2-5.1,3-8.5,3.2c0.4-0.8,0.9-1.7,1.3-2.6c2.3-4.9,3.2-10.6,3.6-15.1h9.8C78.3,20.2,76.9,27,72.4,31z"/>
	</g>
	<g>
		<path class="st1" d="M92.2,43.9c0,2.8-2.2,5-5,5H7.1c-2.8,0-5-2.2-5-5V30.4c0-2.8,2.2-5,5-5h80.1c2.8,0,5,2.2,5,5V43.9z"/>
	</g>
	<g>
		<path class="st0" d="M29.2,31.2h-4v13c0,0.3-0.1,0.5-0.3,0.8c-0.2,0.2-0.5,0.3-0.8,0.3c-0.3,0-0.5-0.1-0.8-0.3S23,44.5,23,44.2
			v-13h-4c-0.3,0-0.5-0.1-0.8-0.3S18,30.4,18,30.2s0.1-0.5,0.3-0.8c0.2-0.2,0.5-0.3,0.8-0.3h10.1c0.3,0,0.5,0.1,0.8,0.3
			c0.2,0.2,0.3,0.5,0.3,0.8s-0.1,0.5-0.3,0.8C29.7,31.1,29.5,31.2,29.2,31.2z"/>
		<path class="st0" d="M31.7,44.2v-14c0-0.1,0-0.3,0.1-0.4c0.1-0.1,0.1-0.2,0.2-0.3c0.1-0.1,0.2-0.2,0.3-0.2
			c0.1-0.1,0.3-0.1,0.4-0.1h3.9c0.7,0,1.3,0.1,1.9,0.4c0.6,0.3,1.1,0.6,1.6,1.1c0.4,0.5,0.8,1,1.1,1.6c0.3,0.6,0.4,1.2,0.4,1.9
			c0,0.4-0.1,0.9-0.2,1.3c-0.1,0.4-0.3,0.8-0.5,1.2c-0.2,0.4-0.5,0.7-0.8,1c-0.3,0.3-0.7,0.6-1.1,0.8l3.2,5.2
			c0.1,0.2,0.2,0.4,0.2,0.6c0,0.2,0,0.3-0.1,0.4s-0.1,0.2-0.2,0.3s-0.2,0.2-0.3,0.2c-0.1,0.1-0.3,0.1-0.4,0.1
			c-0.4,0-0.7-0.2-0.9-0.5L36.9,39h-3v5.2c0,0.3-0.1,0.5-0.3,0.8s-0.5,0.3-0.8,0.3s-0.5-0.1-0.8-0.3C31.8,44.7,31.7,44.5,31.7,44.2z
			 M33.8,31.2v5.7h2.8c0.4,0,0.8-0.1,1.1-0.2s0.6-0.4,0.9-0.6c0.3-0.3,0.5-0.6,0.6-0.9c0.1-0.3,0.2-0.7,0.2-1.1
			c0-0.4-0.1-0.8-0.2-1.1s-0.4-0.6-0.6-0.9c-0.3-0.3-0.6-0.5-0.9-0.6c-0.3-0.1-0.7-0.2-1.1-0.2H33.8z"/>
		<path class="st0" d="M44,43.7l5.4-13.9c0.2-0.5,0.6-0.7,1-0.7c0.5,0,0.8,0.2,1,0.7l5.4,13.9c0.1,0.1,0.1,0.3,0.1,0.4
			c0,0.3-0.1,0.5-0.3,0.8s-0.5,0.3-0.8,0.3c-0.3,0-0.5-0.1-0.7-0.3c-0.1-0.1-0.2-0.2-0.2-0.3L53,39.8h-5.2l-1.9,4.8
			c-0.1,0.1-0.1,0.2-0.2,0.3c-0.2,0.2-0.5,0.3-0.8,0.3s-0.5-0.1-0.8-0.3c-0.2-0.2-0.3-0.5-0.3-0.8C43.9,44,43.9,43.9,44,43.7z
			 M52.1,37.7l-1.8-4.5l-1.8,4.5H52.1z"/>
		<path class="st0" d="M61.3,44.2c0,0.3-0.1,0.5-0.3,0.8c-0.2,0.2-0.5,0.3-0.8,0.3c-0.3,0-0.5-0.1-0.8-0.3s-0.3-0.5-0.3-0.8v-14
			c0-0.3,0.1-0.5,0.3-0.8c0.2-0.2,0.5-0.3,0.8-0.3c0.3,0,0.5,0.1,0.8,0.3c0.2,0.2,0.3,0.5,0.3,0.8V44.2z"/>
		<path class="st0" d="M63.3,44.2v-14c0-0.1,0-0.3,0.1-0.4s0.1-0.2,0.2-0.3s0.2-0.2,0.3-0.2c0.1-0.1,0.3-0.1,0.4-0.1
			c0.3,0,0.6,0.1,0.8,0.4l9,11.6V30.2c0-0.3,0.1-0.5,0.3-0.8c0.2-0.2,0.5-0.3,0.8-0.3s0.5,0.1,0.8,0.3c0.2,0.2,0.3,0.5,0.3,0.8v14
			c0,0.2,0,0.3-0.1,0.4c-0.1,0.1-0.1,0.2-0.2,0.3s-0.2,0.2-0.3,0.2c-0.1,0.1-0.3,0.1-0.4,0.1c-0.3,0-0.6-0.1-0.8-0.4l-9-11.6v10.9
			c0,0.3-0.1,0.5-0.3,0.8s-0.5,0.3-0.8,0.3c-0.3,0-0.5-0.1-0.8-0.3S63.3,44.5,63.3,44.2z"/>
	</g>
</g>
</svg>
